<svg xmlns="http://www.w3.org/2000/svg" xmlns:xlink="http://www.w3.org/1999/xlink" width="387" zoomAndPan="magnify" viewBox="0 0 290.25 113.999999" height="152" preserveAspectRatio="xMidYMid meet" version="1.2"><defs><clipPath id="9d1dcd12ab"><path d="M 48.976562 0.148438 L 132 0.148438 L 132 83 L 48.976562 83 Z M 48.976562 0.148438 "/></clipPath></defs><g id="d780a74b89"><g clip-rule="nonzero" clip-path="url(#9d1dcd12ab)"><path style=" stroke:none;fill-rule:nonzero;fill:#e04649;fill-opacity:1;" d="M 131.734375 13.9375 L 131.734375 41.523438 C 131.730469 42.878906 131.664062 44.230469 131.527344 45.578125 C 131.394531 46.925781 131.195312 48.265625 130.929688 49.59375 C 130.664062 50.921875 130.332031 52.234375 129.9375 53.527344 C 129.542969 54.824219 129.085938 56.097656 128.566406 57.347656 C 128.046875 58.601562 127.46875 59.824219 126.828125 61.015625 C 126.191406 62.210938 125.492188 63.371094 124.742188 64.496094 C 123.988281 65.625 123.179688 66.710938 122.320312 67.757812 C 121.460938 68.804688 120.554688 69.804688 119.597656 70.765625 C 118.636719 71.722656 117.636719 72.632812 116.589844 73.492188 C 115.542969 74.351562 114.457031 75.15625 113.328125 75.910156 C 112.203125 76.664062 111.042969 77.359375 109.847656 77.996094 C 108.65625 78.636719 107.433594 79.214844 106.179688 79.734375 C 104.929688 80.253906 103.65625 80.710938 102.359375 81.105469 C 101.0625 81.5 99.753906 81.832031 98.425781 82.097656 C 97.09375 82.363281 95.757812 82.5625 94.410156 82.695312 C 93.0625 82.832031 91.710938 82.898438 90.355469 82.902344 C 67.515625 82.902344 48.976562 64.363281 48.976562 41.523438 L 48.976562 13.9375 C 65.53125 16.699219 71.046875 36.007812 71.046875 36.007812 C 71.046875 8.421875 90.355469 0.148438 90.355469 0.148438 C 90.355469 0.148438 109.664062 8.421875 109.664062 36.007812 C 109.664062 36.007812 115.183594 16.699219 131.734375 13.9375 Z M 131.734375 13.9375 "/></g><g style="fill:#ffffff;fill-opacity:1;"><g transform="translate(16.155834, 82.423109)"><path style="stroke:none" d="M 16.96875 -21.84375 C 16.101562 -21.84375 15.191406 -21.6875 14.234375 -21.375 C 13.273438 -21.070312 12.40625 -20.566406 11.625 -19.859375 C 10.851562 -19.160156 10.285156 -18.179688 9.921875 -16.921875 L 23.859375 -16.921875 C 23.671875 -18.109375 23.195312 -19.0625 22.4375 -19.78125 C 21.6875 -20.507812 20.8125 -21.035156 19.8125 -21.359375 C 18.820312 -21.679688 17.875 -21.84375 16.96875 -21.84375 Z M 25.96875 -9.328125 L 30.640625 -4.875 C 29.335938 -3.4375 27.914062 -2.316406 26.375 -1.515625 C 24.84375 -0.722656 23.328125 -0.175781 21.828125 0.125 C 20.328125 0.4375 18.941406 0.59375 17.671875 0.59375 C 14.242188 0.59375 11.34375 -0.0546875 8.96875 -1.359375 C 6.601562 -2.660156 4.804688 -4.394531 3.578125 -6.5625 C 2.347656 -8.726562 1.734375 -11.128906 1.734375 -13.765625 C 1.734375 -16.515625 2.390625 -18.988281 3.703125 -21.1875 C 5.023438 -23.394531 6.84375 -25.148438 9.15625 -26.453125 C 11.476562 -27.753906 14.117188 -28.40625 17.078125 -28.40625 C 18.992188 -28.40625 20.84375 -28.070312 22.625 -27.40625 C 24.414062 -26.738281 26.023438 -25.726562 27.453125 -24.375 C 28.890625 -23.019531 30.03125 -21.320312 30.875 -19.28125 C 31.726562 -17.238281 32.15625 -14.820312 32.15625 -12.03125 L 9.765625 -12.03125 C 9.835938 -10.300781 10.625 -8.863281 12.125 -7.71875 C 13.625 -6.582031 15.671875 -6.015625 18.265625 -6.015625 C 19.710938 -6.015625 21.113281 -6.332031 22.46875 -6.96875 C 23.820312 -7.601562 24.988281 -8.390625 25.96875 -9.328125 Z M 25.96875 -9.328125 "/></g></g><g style="fill:#ffffff;fill-opacity:1;"><g transform="translate(49.550114, 82.423109)"><path style="stroke:none" d="M 2.109375 -18.984375 C 2.109375 -21.617188 2.585938 -24.117188 3.546875 -26.484375 C 4.503906 -28.847656 5.882812 -30.929688 7.6875 -32.734375 C 9.5 -34.546875 11.6875 -35.96875 14.25 -37 C 16.820312 -38.03125 19.71875 -38.546875 22.9375 -38.546875 C 25.894531 -38.546875 28.421875 -38.113281 30.515625 -37.25 C 32.617188 -36.382812 34.628906 -35.226562 36.546875 -33.78125 L 33.078125 -27.375 C 31.703125 -28.425781 30.21875 -29.300781 28.625 -30 C 27.03125 -30.707031 25.148438 -31.0625 22.984375 -31.0625 C 20.421875 -31.0625 18.21875 -30.519531 16.375 -29.4375 C 14.53125 -28.351562 13.109375 -26.898438 12.109375 -25.078125 C 11.117188 -23.253906 10.625 -21.222656 10.625 -18.984375 C 10.625 -16.734375 11.117188 -14.695312 12.109375 -12.875 C 13.109375 -11.050781 14.53125 -9.597656 16.375 -8.515625 C 18.21875 -7.429688 20.421875 -6.890625 22.984375 -6.890625 C 25.148438 -6.890625 27.03125 -7.238281 28.625 -7.9375 C 30.21875 -8.644531 31.703125 -9.523438 33.078125 -10.578125 L 36.546875 -4.171875 C 34.628906 -2.722656 32.617188 -1.566406 30.515625 -0.703125 C 28.421875 0.160156 25.894531 0.59375 22.9375 0.59375 C 19.71875 0.59375 16.820312 0.078125 14.25 -0.953125 C 11.6875 -1.984375 9.5 -3.398438 7.6875 -5.203125 C 5.882812 -7.015625 4.503906 -9.101562 3.546875 -11.46875 C 2.585938 -13.832031 2.109375 -16.335938 2.109375 -18.984375 Z M 2.109375 -18.984375 "/></g></g><g style="fill:#ffffff;fill-opacity:1;"><g transform="translate(86.739188, 82.423109)"><path style="stroke:none" d="M 9.921875 -13.984375 C 9.921875 -11.742188 10.550781 -9.847656 11.8125 -8.296875 C 13.082031 -6.742188 14.835938 -5.96875 17.078125 -5.96875 C 19.066406 -5.96875 20.773438 -6.609375 22.203125 -7.890625 C 23.628906 -9.171875 24.34375 -11.0625 24.34375 -13.5625 C 24.34375 -16.15625 23.644531 -18.179688 22.25 -19.640625 C 20.863281 -21.109375 19.066406 -21.84375 16.859375 -21.84375 C 14.660156 -21.84375 12.953125 -21.066406 11.734375 -19.515625 C 10.523438 -17.960938 9.921875 -16.117188 9.921875 -13.984375 Z M 24.125 -27.8125 L 32.203125 -27.8125 L 32.203125 0 L 24.125 0 L 24.125 -4.0625 C 23.113281 -2.613281 21.921875 -1.472656 20.546875 -0.640625 C 19.171875 0.179688 17.453125 0.59375 15.390625 0.59375 C 12.578125 0.59375 10.15625 -0.0625 8.125 -1.375 C 6.101562 -2.695312 4.550781 -4.457031 3.46875 -6.65625 C 2.382812 -8.863281 1.84375 -11.328125 1.84375 -14.046875 C 1.84375 -16.648438 2.359375 -19.039062 3.390625 -21.21875 C 4.421875 -23.40625 5.925781 -25.148438 7.90625 -26.453125 C 9.894531 -27.753906 12.335938 -28.40625 15.234375 -28.40625 C 17.117188 -28.40625 18.835938 -27.988281 20.390625 -27.15625 C 21.941406 -26.332031 23.1875 -25.285156 24.125 -24.015625 Z M 24.125 -27.8125 "/></g></g><g style="fill:#ffffff;fill-opacity:1;"><g transform="translate(122.410349, 82.423109)"><path style="stroke:none" d="M 11.328125 -27.8125 L 11.328125 -21.734375 C 11.617188 -23.441406 12.222656 -24.769531 13.140625 -25.71875 C 14.066406 -26.675781 15.070312 -27.363281 16.15625 -27.78125 C 17.238281 -28.195312 18.179688 -28.40625 18.984375 -28.40625 C 19.453125 -28.40625 19.800781 -28.382812 20.03125 -28.34375 C 20.269531 -28.3125 20.601562 -28.257812 21.03125 -28.1875 L 21.03125 -20.21875 C 20.457031 -20.363281 19.84375 -20.460938 19.1875 -20.515625 C 18.539062 -20.578125 18.019531 -20.609375 17.625 -20.609375 C 16.613281 -20.609375 15.644531 -20.40625 14.71875 -20 C 13.800781 -19.601562 13.039062 -19 12.4375 -18.1875 C 11.84375 -17.375 11.546875 -16.351562 11.546875 -15.125 L 11.546875 0 L 3.46875 0 L 3.46875 -27.8125 Z M 11.328125 -27.8125 "/></g></g><g style="fill:#ffffff;fill-opacity:1;"><g transform="translate(143.823881, 82.423109)"><path style="stroke:none" d="M 16.96875 -21.84375 C 16.101562 -21.84375 15.191406 -21.6875 14.234375 -21.375 C 13.273438 -21.070312 12.40625 -20.566406 11.625 -19.859375 C 10.851562 -19.160156 10.285156 -18.179688 9.921875 -16.921875 L 23.859375 -16.921875 C 23.671875 -18.109375 23.195312 -19.0625 22.4375 -19.78125 C 21.6875 -20.507812 20.8125 -21.035156 19.8125 -21.359375 C 18.820312 -21.679688 17.875 -21.84375 16.96875 -21.84375 Z M 25.96875 -9.328125 L 30.640625 -4.875 C 29.335938 -3.4375 27.914062 -2.316406 26.375 -1.515625 C 24.84375 -0.722656 23.328125 -0.175781 21.828125 0.125 C 20.328125 0.4375 18.941406 0.59375 17.671875 0.59375 C 14.242188 0.59375 11.34375 -0.0546875 8.96875 -1.359375 C 6.601562 -2.660156 4.804688 -4.394531 3.578125 -6.5625 C 2.347656 -8.726562 1.734375 -11.128906 1.734375 -13.765625 C 1.734375 -16.515625 2.390625 -18.988281 3.703125 -21.1875 C 5.023438 -23.394531 6.84375 -25.148438 9.15625 -26.453125 C 11.476562 -27.753906 14.117188 -28.40625 17.078125 -28.40625 C 18.992188 -28.40625 20.84375 -28.070312 22.625 -27.40625 C 24.414062 -26.738281 26.023438 -25.726562 27.453125 -24.375 C 28.890625 -23.019531 30.03125 -21.320312 30.875 -19.28125 C 31.726562 -17.238281 32.15625 -14.820312 32.15625 -12.03125 L 9.765625 -12.03125 C 9.835938 -10.300781 10.625 -8.863281 12.125 -7.71875 C 13.625 -6.582031 15.671875 -6.015625 18.265625 -6.015625 C 19.710938 -6.015625 21.113281 -6.332031 22.46875 -6.96875 C 23.820312 -7.601562 24.988281 -8.390625 25.96875 -9.328125 Z M 25.96875 -9.328125 "/></g></g><g style="fill:#ffffff;fill-opacity:1;"><g transform="translate(177.218161, 82.423109)"><path style="stroke:none" d=""/></g></g><g style="fill:#ffb3a8;fill-opacity:1;"><g transform="translate(190.45544, 82.423109)"><path style="stroke:none" d="M 14.6875 -28.1875 L 14.6875 -20.65625 L 20.546875 -20.65625 C 21.523438 -20.65625 22.328125 -21.035156 22.953125 -21.796875 C 23.585938 -22.554688 23.90625 -23.40625 23.90625 -24.34375 C 23.90625 -25.351562 23.585938 -26.242188 22.953125 -27.015625 C 22.328125 -27.796875 21.523438 -28.1875 20.546875 -28.1875 Z M 21.734375 -11.609375 L 14.6875 -11.609375 L 14.6875 0 L 3.3125 0 L 3.3125 -37.953125 L 21.734375 -37.953125 C 24.703125 -37.953125 27.1875 -37.328125 29.1875 -36.078125 C 31.195312 -34.835938 32.71875 -33.191406 33.75 -31.140625 C 34.78125 -29.097656 35.296875 -26.867188 35.296875 -24.453125 C 35.296875 -22.023438 34.78125 -19.84375 33.75 -17.90625 C 32.71875 -15.976562 31.191406 -14.445312 29.171875 -13.3125 C 27.148438 -12.175781 24.671875 -11.609375 21.734375 -11.609375 Z M 21.734375 -11.609375 "/></g></g><g style="fill:#ffb3a8;fill-opacity:1;"><g transform="translate(226.722923, 82.423109)"><path style="stroke:none" d="M 21.140625 0 L 3.3125 0 L 3.3125 -37.953125 L 21.140625 -37.953125 C 23.921875 -37.953125 26.476562 -37.460938 28.8125 -36.484375 C 31.144531 -35.515625 33.1875 -34.148438 34.9375 -32.390625 C 36.695312 -30.640625 38.054688 -28.613281 39.015625 -26.3125 C 39.972656 -24.019531 40.453125 -21.578125 40.453125 -18.984375 C 40.453125 -16.335938 39.972656 -13.867188 39.015625 -11.578125 C 38.054688 -9.285156 36.695312 -7.269531 34.9375 -5.53125 C 33.1875 -3.789062 31.144531 -2.429688 28.8125 -1.453125 C 26.476562 -0.484375 23.921875 0 21.140625 0 Z M 19.578125 -28.1875 L 14.6875 -28.1875 L 14.6875 -9.765625 L 19.578125 -9.765625 C 22.503906 -9.765625 24.816406 -10.59375 26.515625 -12.25 C 28.210938 -13.914062 29.0625 -16.160156 29.0625 -18.984375 C 29.0625 -21.796875 28.210938 -24.039062 26.515625 -25.71875 C 24.816406 -27.40625 22.503906 -28.226562 19.578125 -28.1875 Z M 19.578125 -28.1875 "/></g></g></g></svg>